<svg xmlns="http://www.w3.org/2000/svg" viewBox="0 0 247.53 307.17"><defs><style>.cls-1{fill:#1d1d1b;}.cls-2{fill:none;stroke:#1d1d1b;stroke-miterlimit:10;stroke-width:1.05px;}.cls-3{fill:#d5a940;}</style></defs><title>Heather Van Sickle Award_Gold</title><g id="Modo_de_aislamiento" data-name="Modo de aislamiento"><path class="cls-1" d="M66.35,237.23v-8.92H57.42v8.92H54.77v-18.7h2.65v7.54h8.93v-7.54H69v18.7Z" transform="translate(-40.18 -28)"/><path class="cls-1" d="M72.19,230.43c0-4.46,2.87-6.8,6.27-6.8s5.21,2,5.21,5.1V231H74.74c.16,2.95,1.65,4.36,4.36,4.36a7,7,0,0,0,3.4-.85h.64V236a6.3,6.3,0,0,1-4.46,1.48C74.74,237.44,72.19,234.89,72.19,230.43Zm8.93-1.38v-.32a2.77,2.77,0,0,0-2.76-3.08c-2,0-3,1.06-3.4,3.08l-.06.32Z" transform="translate(-40.18 -28)"/><path class="cls-1" d="M94.93,237.23v-1.17l-1,.53a7,7,0,0,1-3.19.85c-2.55,0-4.46-1.27-4.46-4S89,229.16,92,229.16h3v-1c0-1.59-.85-2.45-3-2.45a7.8,7.8,0,0,0-3.62.86h-.63v-1.7a9.3,9.3,0,0,1,4.78-1.28c2.87,0,5,1.38,5,3.93v9.67Zm-3.82-1.81a5.69,5.69,0,0,0,2.87-.74l1-.53v-3.08H92.06c-1.8,0-3.18.64-3.18,2.23A2,2,0,0,0,91.11,235.42Z" transform="translate(-40.18 -28)"/><path class="cls-1" d="M102.37,233.72v-7.86h-2.23v-2h2.23v-2.76h2.55v2.76h4v2h-4v7.23c0,1.91.53,2.33,1.7,2.33a3.19,3.19,0,0,0,2.13-.95h.63v1.7l-.42.32a5.07,5.07,0,0,1-2.87.95C104.07,237.44,102.37,236.49,102.37,233.72Z" transform="translate(-40.18 -28)"/><path class="cls-1" d="M120.54,237.23v-8.39c0-2.34-1-3.09-2.34-3.09a5.44,5.44,0,0,0-3,1l-.75.43v10.09h-2.55v-18.7h2.55v6.59l.75-.43a6.16,6.16,0,0,1,3.4-1.06c2.55,0,4.46,1.28,4.46,4.68v8.92Z" transform="translate(-40.18 -28)"/><path class="cls-1" d="M126.17,230.43c0-4.46,2.87-6.8,6.27-6.8s5.21,2,5.21,5.1V231h-8.93c.16,2.95,1.65,4.36,4.36,4.36a7,7,0,0,0,3.4-.85h.63V236a6.29,6.29,0,0,1-4.46,1.48C128.72,237.44,126.17,234.89,126.17,230.43Zm8.93-1.38v-.32a2.77,2.77,0,0,0-2.77-3.08c-2,0-3,1.06-3.4,3.08l-.05.32Z" transform="translate(-40.18 -28)"/><path class="cls-1" d="M141,237.23V223.84h2.56v1.49c1.16-.85,2.33-1.7,3.4-1.7a2.7,2.7,0,0,1,1.27.21v2.23h-1.7a5.24,5.24,0,0,0-3,1.28v9.88Z" transform="translate(-40.18 -28)"/><path class="cls-1" d="M161.66,237.23,155.28,219v-.42h2.66l5.53,16.15,5.31-16.15h2.55V219l-6.48,18.28Z" transform="translate(-40.18 -28)"/><path class="cls-1" d="M181.74,237.23v-1.17l-1,.53a7,7,0,0,1-3.18.85c-2.55,0-4.47-1.27-4.47-4s2.66-4.25,5.64-4.25h3v-1c0-1.59-.85-2.45-3-2.45a7.8,7.8,0,0,0-3.62.86h-.64v-1.7a9.34,9.34,0,0,1,4.79-1.28c2.87,0,5,1.38,5,3.93v9.67Zm-3.83-1.81a5.65,5.65,0,0,0,2.87-.74l1-.53v-3.08h-2.87c-1.8,0-3.19.64-3.19,2.23A2,2,0,0,0,177.91,235.42Z" transform="translate(-40.18 -28)"/><path class="cls-1" d="M188.75,237.23V223.84h2.55v1.28l.75-.43a6.16,6.16,0,0,1,3.4-1.06c2.55,0,4.46,1.28,4.46,4.68v8.92h-2.55v-8.39c0-2.34-1-3.09-2.34-3.09a5.44,5.44,0,0,0-3,1l-.75.43v10.09Z" transform="translate(-40.18 -28)"/><path class="cls-1" d="M209.9,236.06v-1.91h.63a9,9,0,0,0,4.36,1.17c2.66,0,4.15-1,4.15-3.08,0-1.92-1.28-2.66-3-3.3l-2.44-.95a4.82,4.82,0,0,1-3.72-4.68c0-3.29,3-5,6.58-5a7.48,7.48,0,0,1,4.47,1.27v1.81h-.43a9.33,9.33,0,0,0-4.25-1c-2,0-3.61.75-3.61,2.87,0,1.7,1.27,2.23,2.34,2.66l2.44.95c2.13.75,4.36,2,4.36,5.1,0,3.51-2.66,5.42-6.91,5.42C213.19,237.44,211,237,209.9,236.06Z" transform="translate(-40.18 -28)"/><path class="cls-1" d="M224.77,237.23V225.86h-1.7v-2h4.25v13.39Zm0-16.58v-2.12h2.55v2.12Z" transform="translate(-40.18 -28)"/><path class="cls-1" d="M230.3,230.54a6.49,6.49,0,0,1,6.8-6.91,4.88,4.88,0,0,1,3.61,1.28v1.59h-.64a5.77,5.77,0,0,0-3-.75c-2.34,0-4.15,1.49-4.15,4.57,0,3.62,1.6,5,3.93,5a5.66,5.66,0,0,0,3.19-.85h.64v1.38a5.58,5.58,0,0,1-4,1.59C233.06,237.44,230.3,235.21,230.3,230.54Z" transform="translate(-40.18 -28)"/><path class="cls-1" d="M252,237.23l-4.46-6.43-1.06,1v5.45H243.9v-18.7h2.55v10.65l5.42-5.34h3v.21l-5.52,5.08,5.52,7.89v.21Z" transform="translate(-40.18 -28)"/><path class="cls-1" d="M257.18,237.23V220.55h-1.7v-2h4.25v18.7Z" transform="translate(-40.18 -28)"/><path class="cls-1" d="M262.7,230.43c0-4.46,2.87-6.8,6.27-6.8s5.21,2,5.21,5.1V231h-8.93c.16,2.95,1.65,4.36,4.36,4.36a7,7,0,0,0,3.4-.85h.64V236a6.31,6.31,0,0,1-4.47,1.48C265.25,237.44,262.7,234.89,262.7,230.43Zm8.93-1.38v-.32a2.77,2.77,0,0,0-2.76-3.08c-2,0-3,1.06-3.4,3.08l-.06.32Z" transform="translate(-40.18 -28)"/><path class="cls-1" d="M74,275.4V256.7h11v2.23H76.66v5.42H84v2.23H76.66v6.59h8.6v2.23Z" transform="translate(-40.18 -28)"/><path class="cls-1" d="M88.66,275.4V262h2.55v1.27l.75-.42a6.16,6.16,0,0,1,3.4-1.06c2.55,0,4.46,1.27,4.46,4.67v8.93H97.27V267c0-2.33-1-3.08-2.34-3.08a5.44,5.44,0,0,0-3,1l-.75.42v10.1Z" transform="translate(-40.18 -28)"/><path class="cls-1" d="M104.6,271.89V264h-2.23v-2h2.23v-2.76h2.55V262h4v2h-4v7.22c0,1.92.53,2.34,1.7,2.34a3.24,3.24,0,0,0,2.13-.95h.63v1.7l-.42.32a5.07,5.07,0,0,1-2.87.95C106.3,275.61,104.6,274.66,104.6,271.89Z" transform="translate(-40.18 -28)"/><path class="cls-1" d="M114.16,275.4V262h2.55v1.49c1.17-.85,2.34-1.7,3.4-1.7a2.74,2.74,0,0,1,1.28.21v2.23h-1.7a5.19,5.19,0,0,0-3,1.28v9.88Z" transform="translate(-40.18 -28)"/><path class="cls-1" d="M122,268.6c0-4.46,2.86-6.8,6.26-6.8s5.21,2,5.21,5.1v2.23h-8.92c.15,2.95,1.64,4.36,4.35,4.36a7,7,0,0,0,3.4-.85H133v1.48a6.26,6.26,0,0,1-4.46,1.49C124.58,275.61,122,273.06,122,268.6Zm8.92-1.38v-.32a2.77,2.77,0,0,0-2.76-3.08c-2,0-3,1.06-3.4,3.08l-.06.32Z" transform="translate(-40.18 -28)"/><path class="cls-1" d="M136.9,280.5V262h2.55v1.27l.64-.42a5.38,5.38,0,0,1,3.29-1.06c3,0,5.32,1.91,5.32,6.48a6.94,6.94,0,0,1-7.23,7.12h-2v5.1Zm4.36-7.12c2.55,0,4.78-1.59,4.78-5.1s-1.38-4.36-3.08-4.36a5,5,0,0,0-2.77,1l-.74.42v8.08Z" transform="translate(-40.18 -28)"/><path class="cls-1" d="M151.78,275.4V262h2.55v1.49c1.17-.85,2.33-1.7,3.4-1.7A2.7,2.7,0,0,1,159,262v2.23h-1.7a5.17,5.17,0,0,0-3,1.28v9.88Z" transform="translate(-40.18 -28)"/><path class="cls-1" d="M159.64,268.6c0-4.46,2.87-6.8,6.27-6.8s5.2,2,5.2,5.1v2.23h-8.92c.16,2.95,1.65,4.36,4.35,4.36a7.06,7.06,0,0,0,3.41-.85h.63v1.48a6.24,6.24,0,0,1-4.46,1.49C162.19,275.61,159.64,273.06,159.64,268.6Zm8.92-1.38v-.32a2.77,2.77,0,0,0-2.76-3.08c-2,0-3,1.06-3.4,3.08l-.05.32Z" transform="translate(-40.18 -28)"/><path class="cls-1" d="M174.51,275.4V262h2.55v1.27l.75-.42a6.16,6.16,0,0,1,3.4-1.06c2.55,0,4.46,1.27,4.46,4.67v8.93h-2.55V267c0-2.33-1-3.08-2.34-3.08a5.44,5.44,0,0,0-3,1l-.75.42v10.1Z" transform="translate(-40.18 -28)"/><path class="cls-1" d="M188.75,268.6c0-4.46,2.87-6.8,6.27-6.8s5.21,2,5.21,5.1v2.23H191.3c.16,2.95,1.65,4.36,4.36,4.36a7,7,0,0,0,3.4-.85h.64v1.48a6.27,6.27,0,0,1-4.47,1.49C191.3,275.61,188.75,273.06,188.75,268.6Zm8.93-1.38v-.32a2.77,2.77,0,0,0-2.77-3.08c-2,0-3,1.06-3.4,3.08l0,.32Z" transform="translate(-40.18 -28)"/><path class="cls-1" d="M212.13,275.4v-1.28l-.64.43a6.17,6.17,0,0,1-3.51,1.06c-2.55,0-4.57-1.27-4.57-4.67V262H206v8.29c0,2.34,1.07,3.19,2.45,3.19a5.78,5.78,0,0,0,3.08-1l.64-.42V262h2.55V275.4Z" transform="translate(-40.18 -28)"/><path class="cls-1" d="M219.14,275.4V262h2.55v1.49c1.17-.85,2.34-1.7,3.4-1.7a2.74,2.74,0,0,1,1.28.21v2.23h-1.7a5.17,5.17,0,0,0-3,1.28v9.88Z" transform="translate(-40.18 -28)"/><path class="cls-1" d="M229.87,275.4V264h-1.7v-2h4.25V275.4Zm0-16.58V256.7h2.55v2.12Z" transform="translate(-40.18 -28)"/><path class="cls-1" d="M244.53,275.4v-1.17l-.95.53a7,7,0,0,1-3.19.85c-2.55,0-4.46-1.27-4.46-4s2.65-4.25,5.63-4.25h3v-.95c0-1.6-.85-2.45-3-2.45a7.85,7.85,0,0,0-3.61.85h-.64v-1.7a9.4,9.4,0,0,1,4.78-1.27c2.87,0,5,1.38,5,3.93v9.67Zm-3.82-1.81a5.69,5.69,0,0,0,2.87-.74l.95-.53v-3.08h-2.87c-1.8,0-3.18.63-3.18,2.23A2,2,0,0,0,240.71,273.59Z" transform="translate(-40.18 -28)"/><path class="cls-1" d="M251.55,275.4V258.72h-1.7v-2h4.25v18.7Z" transform="translate(-40.18 -28)"/><path class="cls-1" d="M55,293.52c0-6.06,3.72-9.35,8.72-9.35a8.1,8.1,0,0,1,4.89,1.38v1.7H68a9.26,9.26,0,0,0-4.25-1c-3.62,0-6,2.66-6,7.23,0,5.2,2.33,7.65,6,7.65A7,7,0,0,0,68,299.89h.64v1.7a8.35,8.35,0,0,1-5.32,1.7C57.58,303.29,55,299.15,55,293.52Z" transform="translate(-40.18 -28)"/><path class="cls-1" d="M70.23,296.39c0-4.57,2.76-6.91,6.48-6.91s6.48,2.34,6.48,6.91-2.76,6.9-6.48,6.9S70.23,300.85,70.23,296.39Zm10.31,0c0-3-1.49-4.89-3.83-4.89s-3.83,1.91-3.83,4.89,1.49,4.88,3.83,4.88S80.54,299.36,80.54,296.39Z" transform="translate(-40.18 -28)"/><path class="cls-1" d="M86.16,303.08V286.4h-1.7v-2h4.26v18.7Z" transform="translate(-40.18 -28)"/><path class="cls-1" d="M93,303.08V286.4h-1.7v-2h4.26v18.7Z" transform="translate(-40.18 -28)"/><path class="cls-1" d="M98.49,296.28c0-4.46,2.87-6.8,6.27-6.8s5.21,2,5.21,5.1v2.23H101c.16,2.95,1.65,4.36,4.36,4.36a7,7,0,0,0,3.4-.85h.63v1.49a6.29,6.29,0,0,1-4.46,1.48C101,303.29,98.49,300.74,98.49,296.28Zm8.93-1.38v-.32a2.77,2.77,0,0,0-2.77-3.08c-2,0-3,1.06-3.4,3.08l0,.32Z" transform="translate(-40.18 -28)"/><path class="cls-1" d="M113.26,306.91v-1.38h.85a7,7,0,0,0,3.29.63c2,0,3.93-1,3.93-3.61v-1.17l-.63.43a5.58,5.58,0,0,1-3.3,1.06c-3.18,0-5.31-2-5.31-6.48s3.61-6.7,7.23-6.7h4.57v13.07c0,3.61-3.19,5.42-6.49,5.42A6.43,6.43,0,0,1,113.26,306.91Zm6.06-15.2c-2.55,0-4.57,1.49-4.57,4.68s1.17,4.35,3,4.35a4.82,4.82,0,0,0,2.87-1.06l.74-.42v-7.55Z" transform="translate(-40.18 -28)"/><path class="cls-1" d="M127,296.28c0-4.46,2.87-6.8,6.27-6.8s5.21,2,5.21,5.1v2.23h-8.92c.15,2.95,1.64,4.36,4.35,4.36a7,7,0,0,0,3.4-.85h.64v1.49a6.3,6.3,0,0,1-4.46,1.48C129.52,303.29,127,300.74,127,296.28Zm8.93-1.38v-.32a2.77,2.77,0,0,0-2.76-3.08c-2,0-3,1.06-3.4,3.08l-.06.32Z" transform="translate(-40.18 -28)"/><path class="cls-1" d="M147.26,296.39c0-4.57,2.76-6.91,6.48-6.91s6.48,2.34,6.48,6.91-2.76,6.9-6.48,6.9S147.26,300.85,147.26,296.39Zm10.31,0c0-3-1.49-4.89-3.83-4.89s-3.82,1.91-3.82,4.89,1.48,4.88,3.82,4.88S157.57,299.36,157.57,296.39Z" transform="translate(-40.18 -28)"/><path class="cls-1" d="M163.73,303.08V291.71H161.5v-2h2.23v-.32c0-3.4,2.34-5,5.63-5h1.17v2h-1.17c-1.81,0-3.08.63-3.08,3.08v.21h2.87v2h-2.87v11.37Z" transform="translate(-40.18 -28)"/><path class="cls-1" d="M178.82,299.57v-7.86h-2.24v-2h2.24v-2.76h2.55v2.76h4v2h-4v7.23c0,1.91.53,2.33,1.7,2.33a3.17,3.17,0,0,0,2.12-.95h.64V302l-.42.32a5.07,5.07,0,0,1-2.87,1C180.52,303.29,178.82,302.34,178.82,299.57Z" transform="translate(-40.18 -28)"/><path class="cls-1" d="M197,303.08v-8.39c0-2.34-1-3.09-2.34-3.09a5.49,5.49,0,0,0-3,1l-.74.43v10.09h-2.55v-18.7h2.55V291l.74-.43a6.18,6.18,0,0,1,3.4-1.06c2.55,0,4.47,1.27,4.47,4.68v8.92Z" transform="translate(-40.18 -28)"/><path class="cls-1" d="M202.62,296.28c0-4.46,2.87-6.8,6.27-6.8s5.2,2,5.2,5.1v2.23h-8.92c.16,2.95,1.64,4.36,4.35,4.36a7,7,0,0,0,3.4-.85h.64v1.49a6.29,6.29,0,0,1-4.46,1.48C205.17,303.29,202.62,300.74,202.62,296.28Zm8.92-1.38v-.32a2.77,2.77,0,0,0-2.76-3.08c-2,0-3,1.06-3.4,3.08l0,.32Z" transform="translate(-40.18 -28)"/><path class="cls-1" d="M228.12,303.08v-7.7l-5.74-10.58v-.42H225l4.67,8.71,4.57-8.71h2.55v.42l-6,10.47v7.81Z" transform="translate(-40.18 -28)"/><path class="cls-1" d="M237.26,296.28c0-4.46,2.86-6.8,6.26-6.8s5.21,2,5.21,5.1v2.23h-8.92c.15,2.95,1.64,4.36,4.35,4.36a7,7,0,0,0,3.4-.85h.64v1.49a6.3,6.3,0,0,1-4.46,1.48C239.81,303.29,237.26,300.74,237.26,296.28Zm8.92-1.38v-.32a2.77,2.77,0,0,0-2.76-3.08c-2,0-3,1.06-3.4,3.08l-.06.32Z" transform="translate(-40.18 -28)"/><path class="cls-1" d="M260,303.08v-1.17l-.95.53a7,7,0,0,1-3.19.85c-2.55,0-4.46-1.27-4.46-4S254,295,257,295h3v-.95c0-1.6-.85-2.45-3-2.45a7.85,7.85,0,0,0-3.61.85h-.64v-1.7a9.4,9.4,0,0,1,4.78-1.27c2.87,0,5,1.38,5,3.93v9.67Zm-3.82-1.81a5.69,5.69,0,0,0,2.87-.74L260,300v-3.08h-2.87c-1.8,0-3.18.64-3.18,2.23A2,2,0,0,0,256.17,301.27Z" transform="translate(-40.18 -28)"/><path class="cls-1" d="M267,303.08V289.69h2.55v1.49c1.17-.85,2.33-1.7,3.4-1.7a2.7,2.7,0,0,1,1.27.21v2.23h-1.7a5.17,5.17,0,0,0-3,1.28v9.88Z" transform="translate(-40.18 -28)"/><path class="cls-1" d="M133.34,335v-1.7l4-4.57c2.18-2.47,4-4.36,4-6.8,0-1.39-.85-2.55-3.08-2.55a6.21,6.21,0,0,0-3.93,1.27h-.64v-3a8.28,8.28,0,0,1,5.1-1.6c4,0,6.8,1.91,6.8,5.53,0,3.4-2.55,5.9-4.25,7.75l-2.13,2.34h7V335Z" transform="translate(-40.18 -28)"/><path class="cls-1" d="M148.86,325.61c0-6.7,2.44-9.57,7-9.57s7,2.87,7,9.57-2.44,9.56-7,9.56S148.86,332.3,148.86,325.61Zm10,0c0-4.89-.85-6.27-3-6.27s-3,1.38-3,6.27.85,6.26,3,6.26S158.84,330.49,158.84,325.61Z" transform="translate(-40.18 -28)"/><path class="cls-1" d="M166.28,335v-3.3h3.83V320.29l-4,1.07h-.21v-3.3l6.16-1.81h2.12v15.41h3.62V335Z" transform="translate(-40.18 -28)"/><path class="cls-1" d="M182.22,333.68v-3h.64a7.29,7.29,0,0,0,4.25,1.16c2.44,0,4-1.16,4-4.25v-.26l-.53.26a7,7,0,0,1-3.08.85c-4.3,0-6.37-2.44-6.37-6.05,0-3.93,2.44-6.38,7-6.38,4.25,0,7,2.23,7,6.91v4.36c0,5-3,7.86-7.65,7.86A8.55,8.55,0,0,1,182.22,333.68Zm8.92-10.62c0-2.56-1.06-3.72-3-3.72a2.66,2.66,0,0,0-3,2.87c0,2.23.85,3,2.77,3a5.39,5.39,0,0,0,2.65-.64l.53-.26Z" transform="translate(-40.18 -28)"/><line class="cls-2" y1="219.57" x2="247.53" y2="219.57"/><polygon class="cls-3" points="121.85 10.65 125.06 17.14 132.25 18.18 127.05 23.23 128.28 30.37 121.85 27 115.42 30.37 116.65 23.23 111.44 18.18 118.64 17.14 121.85 10.65"/><path class="cls-3" d="M161.85,160.7l-.35-97.53s18.56-1.36,25.25-34.63c0,0,1.47,39.65,1.36,42.84S161.85,160.7,161.85,160.7Z" transform="translate(-40.18 -28)"/><path class="cls-3" d="M159.48,73.52S147.82,71,139.77,37.84c0,0,1.1,40.85,1.17,44.14s19.85,79.29,19.85,79.29Z" transform="translate(-40.18 -28)"/><path class="cls-3" d="M168.46,58.91a.54.54,0,0,1-.25-.06L162,55.61l-6.18,3.24a.56.56,0,0,1-.57,0,.55.55,0,0,1-.22-.53l1.18-6.86-5-4.85a.53.53,0,0,1-.14-.56.54.54,0,0,1,.44-.37l6.9-1,3.09-6.23a.53.53,0,0,1,.49-.3h0a.53.53,0,0,1,.49.3l3.09,6.23,6.9,1A.54.54,0,0,1,173,46a.53.53,0,0,1-.14.56l-5,4.85L169,58.28a.55.55,0,0,1-.22.53A.53.53,0,0,1,168.46,58.91ZM152.79,46.56l4.42,4.29a.55.55,0,0,1,.15.48l-1,6.05,5.46-2.86a.55.55,0,0,1,.5,0l5.46,2.86-1-6.05a.53.53,0,0,1,.15-.48l4.42-4.29-6.1-.89a.52.52,0,0,1-.41-.29L162,39.87l-2.73,5.51a.52.52,0,0,1-.41.29Z" transform="translate(-40.18 -28)"/><path class="cls-3" d="M161.85,161.25h-.07a.55.55,0,0,1-.47-.53L161,63.18a.55.55,0,0,1,.5-.55c.18,0,18.24-1.78,24.76-34.2a.54.54,0,0,1,1.07.09c.06,1.62,1.48,39.7,1.36,42.88s-25.21,85.94-26.28,89.46A.55.55,0,0,1,161.85,161.25Zm.19-97.6.34,93.43c9.25-30.5,25.1-83.35,25.19-85.72s-.84-28.33-1.21-38.61C179.66,59.63,165,63.2,162,63.65Z" transform="translate(-40.18 -28)"/><path class="cls-3" d="M160.79,161.81a.53.53,0,0,1-.52-.4c-.81-3.11-19.8-76.1-19.87-79.42s-1.16-43.73-1.17-44.13a.54.54,0,0,1,.47-.56.55.55,0,0,1,.6.41c4.1,16.91,9.14,25.61,12.65,29.93,3.78,4.66,6.62,5.35,6.65,5.35a.54.54,0,0,1,.42.52l1.32,87.75a.55.55,0,0,1-.48.55ZM140.44,42.6c.3,10.89,1,36.8,1.05,39.37s11.65,47.69,18.69,74.79l-1.24-82.84C156.84,73.18,147.6,68.52,140.44,42.6Z" transform="translate(-40.18 -28)"/><polygon class="cls-3" points="138.94 138.25 120.53 142.54 103.32 138.25 109.22 128.99 132.81 128.99 138.94 138.25"/><path class="cls-3" d="M160.71,171.08h-.13l-17.21-4.3a.56.56,0,0,1-.38-.32.56.56,0,0,1,0-.49l5.9-9.27a.55.55,0,0,1,.45-.25H173a.53.53,0,0,1,.46.25l6.13,9.26a.52.52,0,0,1,.05.5.54.54,0,0,1-.38.32l-18.41,4.3Zm-16.35-5.18L160.71,170l17.53-4.08-5.55-8.38h-23Z" transform="translate(-40.18 -28)"/><path class="cls-3" d="M133,198.58a28.68,28.68,0,0,1,7.48-4.34c1-.4,2-.77,3-1.1a23.79,23.79,0,0,1-6.69-5.9c-.75-.67-6.36-7.47-6.3-7.47,3.49-.78,6.54-1.4,10.12-.78a16.43,16.43,0,0,1,6.08,2.5c1.59,1,3.19,2.19,5,3.44a15.5,15.5,0,0,0,4,2.14,5.13,5.13,0,0,0,4.27-.33.67.67,0,0,1,.51-.16.76.76,0,0,1,.38.37c1.76,3-.09,9-1.8,10.84-4.57,5.12-9.16,7.44-15.76,6.84-5.79-.61-9.47-.81-14.88.21-.51.1,1.47-3.06,1.62-3.26A21.53,21.53,0,0,1,133,198.58Z" transform="translate(-40.18 -28)"/><path class="cls-3" d="M106.29,187.57a24.66,24.66,0,0,1,7.56-1.59c1-.06,1.92-.08,2.89-.07a24.32,24.32,0,0,1-4.46-7.17c-.5-.81-3.88-8.51-3.83-8.5,3.27.39,6.11.77,9.11,2.41a16.63,16.63,0,0,1,4.72,4c1.15,1.34,2.26,2.87,3.53,4.49a15.34,15.34,0,0,0,2.92,3,4.58,4.58,0,0,0,3.72.95.62.62,0,0,1,.48,0,.75.75,0,0,1,.23.43c.78,3.13-2.21,7.8-4.11,8.91-5.12,3.16-9.6,3.88-15.19,1.44-4.88-2.22-8-3.48-13-4.19-.47-.06,2-2.26,2.17-2.39A18.75,18.75,0,0,1,106.29,187.57Z" transform="translate(-40.18 -28)"/><path class="cls-3" d="M85.11,169.65a22.52,22.52,0,0,1,7.08.94c.86.23,1.72.51,2.58.83a25.71,25.71,0,0,1-2.37-7.79c-.26-.87-1.6-8.84-1.56-8.83a24.91,24.91,0,0,1,7.62,5.06,17.43,17.43,0,0,1,3.33,5.06c.73,1.55,1.37,3.25,2.13,5.08a16.28,16.28,0,0,0,1.89,3.58,4.59,4.59,0,0,0,3.08,2,.55.55,0,0,1,.42.15.66.66,0,0,1,.1.45c0,3-3.75,6.2-5.68,6.61-5.24,1.24-9.36.54-13.76-3.34-3.83-3.47-6.37-5.59-10.64-7.77-.4-.21,2.27-1.4,2.46-1.47A15.44,15.44,0,0,1,85.11,169.65Z" transform="translate(-40.18 -28)"/><path class="cls-3" d="M70.24,146.73a23.1,23.1,0,0,1,6,3.15c.71.49,1.42,1,2.11,1.59a26.13,26.13,0,0,1-.43-7.84c0-.86.48-8.59.51-8.57a28.93,28.93,0,0,1,5.68,7.13A19.4,19.4,0,0,1,86,147.86c.32,1.64.52,3.38.81,5.28a16.89,16.89,0,0,0,.91,3.82,5,5,0,0,0,2.32,2.75.57.57,0,0,1,.34.27.66.66,0,0,1,0,.44c-.69,2.67-4.72,4.36-6.52,4.13-4.94-.55-8.44-2.47-11.48-7.39a52.38,52.38,0,0,0-7.68-10.49c-.31-.32,2.29-.53,2.47-.53A14,14,0,0,1,70.24,146.73Z" transform="translate(-40.18 -28)"/><path class="cls-3" d="M62.42,120.73a25.45,25.45,0,0,1,4.46,5c.5.69,1,1.42,1.46,2.17a26.26,26.26,0,0,1,1.38-7.41c.15-.81,2.35-7.86,2.38-7.84a35.92,35.92,0,0,1,3.25,8.59,21.45,21.45,0,0,1,.4,5.89c-.08,1.61-.27,3.29-.43,5.13a17.33,17.33,0,0,0,0,3.81,5.55,5.55,0,0,0,1.45,3.28.7.7,0,0,1,.24.36.62.62,0,0,1-.1.39c-1.18,2.21-5.09,2.44-6.62,1.63-4.21-2.12-6.83-5-8.36-10.57a65.58,65.58,0,0,0-4.14-12.28c-.18-.4,2.06.27,2.22.33A13.39,13.39,0,0,1,62.42,120.73Z" transform="translate(-40.18 -28)"/><path class="cls-3" d="M62.41,93.54a32.06,32.06,0,0,1,2.31,6.24c.23.83.45,1.69.65,2.57a26.61,26.61,0,0,1,3-6.61c.33-.72,4-6.77,4.07-6.76a52.13,52.13,0,0,1,.36,9.39,25.79,25.79,0,0,1-1.13,5.76c-.47,1.51-1,3-1.6,4.71a17.92,17.92,0,0,0-.92,3.58,6.33,6.33,0,0,0,.47,3.57.75.75,0,0,1,.13.42.65.65,0,0,1-.17.33c-1.52,1.66-4.9.56-6-.71-3-3.4-4.54-7-4.38-12.77a98.63,98.63,0,0,0-.05-13.11c0-.45,1.58,1,1.69,1.07A13.71,13.71,0,0,1,62.41,93.54Z" transform="translate(-40.18 -28)"/><path class="cls-3" d="M71,67.05A49.56,49.56,0,0,1,70.56,74c-.1.89-.21,1.81-.34,2.74a28.2,28.2,0,0,1,4.58-5.52c.49-.59,5.52-5.44,5.55-5.43a91.62,91.62,0,0,1-3,9.5,32.24,32.24,0,0,1-2.71,5.32c-.83,1.32-1.73,2.62-2.68,4.07a19.13,19.13,0,0,0-1.77,3.18,7.55,7.55,0,0,0-.62,3.61.94.94,0,0,1,0,.44.57.57,0,0,1-.23.27c-1.68,1.08-4.12-1.12-4.64-2.71-1.48-4.32-1.58-8.3.43-13.87,1.85-4.9,3.11-8.12,4.62-12.92.14-.45.85,1.46.89,1.6A18.11,18.11,0,0,1,71,67.05Z" transform="translate(-40.18 -28)"/><path class="cls-3" d="M88.78,43.11c-1,2.17-2.32,4.53-3.63,6.89l-1.5,2.67a33.4,33.4,0,0,1,6-4.23c.62-.44,6.8-4,6.84-4-2.43,3.14-4.37,5.93-6.83,8.88A44.58,44.58,0,0,1,85.31,58c-1.18,1.09-2.39,2.12-3.68,3.29A21.52,21.52,0,0,0,79,63.87a9.73,9.73,0,0,0-1.82,3.41,1,1,0,0,1-.17.44.52.52,0,0,1-.27.19c-1.69.54-2.77-2.45-2.55-4.2.51-4.77,2-8.76,6.09-13.74,3.63-4.36,6.15-7.24,9.84-11.65C90.5,37.9,90,40,90,40.19A31.26,31.26,0,0,1,88.78,43.11Z" transform="translate(-40.18 -28)"/><path class="cls-3" d="M193.85,198.58a28.85,28.85,0,0,0-7.48-4.34c-1-.4-2-.77-3-1.1a23.93,23.93,0,0,0,6.69-5.9c.75-.67,6.36-7.47,6.29-7.47-3.49-.78-6.53-1.4-10.11-.78a16.36,16.36,0,0,0-6.08,2.5c-1.59,1-3.2,2.19-5,3.44a15.33,15.33,0,0,1-4,2.14,5.11,5.11,0,0,1-4.26-.33.68.68,0,0,0-.52-.16.74.74,0,0,0-.37.37c-1.77,3,.08,9,1.79,10.84,4.58,5.12,9.16,7.44,15.76,6.84,5.8-.61,9.47-.81,14.88.21.51.1-1.46-3.06-1.61-3.26A22.7,22.7,0,0,0,193.85,198.58Z" transform="translate(-40.18 -28)"/><path class="cls-3" d="M220.6,187.57A24.79,24.79,0,0,0,213,186c-.95-.06-1.92-.08-2.89-.07a24.32,24.32,0,0,0,4.46-7.17c.49-.81,3.88-8.51,3.83-8.5-3.27.39-6.11.77-9.11,2.41a16.67,16.67,0,0,0-4.73,4c-1.14,1.34-2.25,2.87-3.53,4.49a15,15,0,0,1-2.91,3,4.6,4.6,0,0,1-3.73.95.59.59,0,0,0-.47,0,.7.7,0,0,0-.23.43c-.79,3.13,2.21,7.8,4.1,8.91,5.13,3.16,9.61,3.88,15.19,1.44,4.89-2.22,8.06-3.48,13-4.19.48-.06-2-2.26-2.17-2.39A18.66,18.66,0,0,0,220.6,187.57Z" transform="translate(-40.18 -28)"/><path class="cls-3" d="M241.78,169.65a22.48,22.48,0,0,0-7.08.94c-.86.23-1.73.51-2.59.83a25.44,25.44,0,0,0,2.38-7.79c.26-.87,1.6-8.84,1.56-8.83a25.07,25.07,0,0,0-7.63,5.06,17.84,17.84,0,0,0-3.33,5.06c-.72,1.55-1.36,3.25-2.12,5.08a15.9,15.9,0,0,1-1.9,3.58,4.59,4.59,0,0,1-3.07,2,.53.53,0,0,0-.42.15.72.72,0,0,0-.11.45c0,3,3.76,6.2,5.68,6.61,5.25,1.24,9.37.54,13.76-3.34,3.84-3.47,6.38-5.59,10.65-7.77.4-.21-2.27-1.4-2.46-1.47A15.65,15.65,0,0,0,241.78,169.65Z" transform="translate(-40.18 -28)"/><path class="cls-3" d="M256.65,146.73a23,23,0,0,0-6,3.15c-.71.49-1.41,1-2.11,1.59a26.13,26.13,0,0,0,.44-7.84c0-.86-.48-8.59-.51-8.57a28.7,28.7,0,0,0-5.68,7.13,19.42,19.42,0,0,0-1.89,5.67c-.31,1.64-.52,3.38-.8,5.28a16.91,16.91,0,0,1-.92,3.82,4.89,4.89,0,0,1-2.32,2.75.6.6,0,0,0-.34.27.74.74,0,0,0,0,.44c.69,2.67,4.71,4.36,6.52,4.13,4.94-.55,8.43-2.47,11.48-7.39a52,52,0,0,1,7.67-10.49c.31-.32-2.29-.53-2.47-.53A14,14,0,0,0,256.65,146.73Z" transform="translate(-40.18 -28)"/><path class="cls-3" d="M264.46,120.73a25.41,25.41,0,0,0-4.45,5c-.5.69-1,1.42-1.47,2.17a26.25,26.25,0,0,0-1.37-7.41c-.15-.81-2.36-7.86-2.38-7.84a35.94,35.94,0,0,0-3.26,8.59,21.85,21.85,0,0,0-.4,5.89c.08,1.61.28,3.29.44,5.13a18,18,0,0,1,0,3.81,5.55,5.55,0,0,1-1.45,3.28.64.64,0,0,0-.24.36.68.68,0,0,0,.09.39c1.19,2.21,5.1,2.44,6.62,1.63,4.22-2.12,6.84-5,8.36-10.57a66.31,66.31,0,0,1,4.14-12.28c.19-.4-2.06.27-2.21.33A13.46,13.46,0,0,0,264.46,120.73Z" transform="translate(-40.18 -28)"/><path class="cls-3" d="M264.47,93.54a32,32,0,0,0-2.3,6.24c-.23.83-.45,1.69-.65,2.57a26.63,26.63,0,0,0-3-6.61c-.33-.72-4-6.77-4.06-6.76a51.23,51.23,0,0,0-.36,9.39,25.24,25.24,0,0,0,1.13,5.76c.46,1.51,1,3,1.6,4.71a18.6,18.6,0,0,1,.91,3.58,6.33,6.33,0,0,1-.47,3.57.74.74,0,0,0-.12.42.59.59,0,0,0,.17.33c1.51,1.66,4.89.56,6-.71,3.06-3.4,4.55-7,4.39-12.77a98.67,98.67,0,0,1,0-13.11c0-.45-1.58,1-1.68,1.07A13.74,13.74,0,0,0,264.47,93.54Z" transform="translate(-40.18 -28)"/><path class="cls-3" d="M255.94,67.05a51.06,51.06,0,0,0,.38,6.92c.1.89.22,1.81.34,2.74a28.2,28.2,0,0,0-4.58-5.52c-.48-.59-5.52-5.44-5.55-5.43a94.1,94.1,0,0,0,3,9.5,31.5,31.5,0,0,0,2.72,5.32c.82,1.32,1.73,2.62,2.67,4.07a18.44,18.44,0,0,1,1.77,3.18,7.32,7.32,0,0,1,.62,3.61.94.94,0,0,0,0,.44.52.52,0,0,0,.23.27c1.68,1.08,4.11-1.12,4.63-2.71,1.48-4.32,1.59-8.3-.43-13.87-1.84-4.9-3.1-8.12-4.61-12.92-.15-.45-.85,1.46-.89,1.6A17,17,0,0,0,255.94,67.05Z" transform="translate(-40.18 -28)"/><path class="cls-3" d="M238.1,43.11c1,2.17,2.33,4.53,3.64,6.89l1.49,2.67a33.34,33.34,0,0,0-6-4.23c-.62-.44-6.8-4-6.85-4,2.44,3.14,4.38,5.93,6.83,8.88a45.7,45.7,0,0,0,4.35,4.6c1.17,1.09,2.38,2.12,3.68,3.29a20.76,20.76,0,0,1,2.58,2.63,9.41,9.41,0,0,1,1.82,3.41,1.3,1.3,0,0,0,.17.44.58.58,0,0,0,.28.19c1.68.54,2.76-2.45,2.55-4.2-.52-4.77-2.06-8.76-6.09-13.74-3.63-4.36-6.16-7.24-9.84-11.65-.35-.42.13,1.71.17,1.87C237.23,41.12,237.62,42.07,238.1,43.11Z" transform="translate(-40.18 -28)"/><path class="cls-3" d="M198.44,205.37l-.12,0c-5.13-1-8.54-.86-14.72-.21-6.45.59-11.3-1.5-16.21-7-1.74-1.87-3.78-8.15-1.85-11.44a1.17,1.17,0,0,1,.68-.61,1.11,1.11,0,0,1,.92.21,4.72,4.72,0,0,0,3.85.29,15.57,15.57,0,0,0,3.84-2.08l1.86-1.31c1.1-.77,2.13-1.5,3.17-2.15a17,17,0,0,1,6.27-2.56c3.81-.67,7.12.07,10.32.78l.28.06.1.28c.11.33.11.33-3,4-1.08,1.3-3,3.52-3.46,4a26.79,26.79,0,0,1-5.8,5.41c.66.23,1.31.48,2,.75a29.52,29.52,0,0,1,7.61,4.41h0a22.07,22.07,0,0,1,3,3.07c0,.05,2.2,3.12,1.72,3.85A.57.57,0,0,1,198.44,205.37Zm.08-1Zm-32-17.21-.06.08c-1.64,2.82.13,8.52,1.73,10.23,4.73,5.31,9.17,7.24,15.33,6.68,5.13-.54,9-.83,14.23.08-.4-.8-1.16-2.05-1.34-2.31a22,22,0,0,0-2.88-2.9h0a28,28,0,0,0-7.34-4.26c-1-.4-2-.76-3-1.08l-1.18-.38,1.09-.58a23.21,23.21,0,0,0,6.54-5.78l.05-.05c.58-.52,4.36-5.08,5.72-6.75a22.64,22.64,0,0,0-9.1-.59,15.88,15.88,0,0,0-5.9,2.42c-1,.63-2,1.35-3.11,2.11-.61.43-1.23.87-1.88,1.31a15.76,15.76,0,0,1-4.12,2.22,5.6,5.6,0,0,1-4.7-.39Z" transform="translate(-40.18 -28)"/><path class="cls-3" d="M206.69,197.89a17.29,17.29,0,0,1-9.13-3c-1.95-1.15-5.2-6.06-4.34-9.49a1.13,1.13,0,0,1,.44-.72,1,1,0,0,1,.88-.09,4.18,4.18,0,0,0,3.31-.86,14.83,14.83,0,0,0,2.81-2.94l1.27-1.64c.78-1,1.52-2,2.27-2.87a17.17,17.17,0,0,1,4.88-4.13c3.2-1.75,6.3-2.11,9.3-2.47l.31,0,.18.27c.19.27.19.27-1.67,4.46-.66,1.48-1.8,4-2.13,4.57a27.54,27.54,0,0,1-3.75,6.41c.59,0,1.17,0,1.75.07a25,25,0,0,1,7.72,1.63h0a19.43,19.43,0,0,1,3.39,1.81c.06,0,2.67,2.11,2.45,2.92a.58.58,0,0,1-.5.43c-5.1.72-8.27,2-12.89,4.14A16.14,16.14,0,0,1,206.69,197.89Zm-12.44-12.26s0,0,0,.06c-.73,2.9,2.11,7.31,3.86,8.34,5.29,3.27,9.55,3.67,14.71,1.41a44.31,44.31,0,0,1,12.43-4.11,22.14,22.14,0,0,0-1.67-1.58,16.91,16.91,0,0,0-3.17-1.69h0a23.91,23.91,0,0,0-7.4-1.56c-.94-.06-1.9-.08-2.84-.07l-1.27,0,.88-.9a24,24,0,0,0,4.37-7l0-.05c.39-.63,2.6-5.64,3.45-7.61a21.26,21.26,0,0,0-8,2.25A16,16,0,0,0,205,177c-.74.87-1.47,1.82-2.24,2.82-.41.54-.83,1.09-1.27,1.65a15.78,15.78,0,0,1-3,3.14,5,5,0,0,1-4.16,1ZM226,191.22Z" transform="translate(-40.18 -28)"/><path class="cls-3" d="M227.47,183.84a19.48,19.48,0,0,1-4.44-.56c-2.05-.44-6-3.75-6.08-7.12a1.13,1.13,0,0,1,.22-.78,1,1,0,0,1,.77-.34,4,4,0,0,0,2.72-1.77,15.69,15.69,0,0,0,1.82-3.47c.26-.61.5-1.21.73-1.79.48-1.16.92-2.26,1.41-3.31a18,18,0,0,1,3.43-5.2,25.62,25.62,0,0,1,7.77-5.17l.32-.15.26.23c.24.22.24.22-.51,4.58-.26,1.54-.72,4.17-.89,4.76a29.41,29.41,0,0,1-1.86,6.76c.47-.15.94-.3,1.42-.43a23.17,23.17,0,0,1,7.24-1h0a15.79,15.79,0,0,1,3.43.56c.07,0,2.83,1.06,2.89,1.87a.58.58,0,0,1-.33.56,44.51,44.51,0,0,0-10.52,7.69A14.24,14.24,0,0,1,227.47,183.84ZM218,176.08v.06c0,2.69,3.55,5.76,5.26,6.12,5.41,1.28,9.26.35,13.31-3.22a46.69,46.69,0,0,1,10.1-7.51,19.39,19.39,0,0,0-1.75-.85,15.57,15.57,0,0,0-3.17-.51,21.7,21.7,0,0,0-6.91.92c-.85.23-1.71.51-2.55.82l-1.3.47.66-1.21a25,25,0,0,0,2.33-7.63v-.06c.19-.65,1-5.64,1.39-7.77a22.23,22.23,0,0,0-6.58,4.51,17.14,17.14,0,0,0-3.23,4.92c-.48,1-.92,2.11-1.39,3.26-.23.59-.47,1.19-.73,1.8a16.6,16.6,0,0,1-2,3.7,5.08,5.08,0,0,1-3.45,2.18Zm29.32-4.89h0Z" transform="translate(-40.18 -28)"/><path class="cls-3" d="M242.64,165.09c-2.09,0-5.93-1.7-6.67-4.54a1.18,1.18,0,0,1,0-.77,1.06,1.06,0,0,1,.59-.53,4.46,4.46,0,0,0,2.07-2.48,16.9,16.9,0,0,0,.88-3.71c.09-.62.18-1.23.26-1.81.17-1.22.34-2.37.55-3.48a19.9,19.9,0,0,1,1.94-5.82,29.44,29.44,0,0,1,5.76-7.26l.29-.28.35.2c.27.16.27.16.54,4.39.1,1.51.26,4.13.23,4.66a30.88,30.88,0,0,1-.16,6.53l1-.74a23.48,23.48,0,0,1,6.19-3.22h0a14.31,14.31,0,0,1,3.15-.61c.07,0,2.7,0,3,.77a.58.58,0,0,1-.12.65,51.12,51.12,0,0,0-7.6,10.39c-3,4.76-6.5,7-11.88,7.64ZM237,160.22s0,0,0,.06c.61,2.36,4.36,3.95,6,3.75,5.09-.56,8.31-2.63,11.1-7.14a54.54,54.54,0,0,1,7.24-10,13.38,13.38,0,0,0-1.59-.18,13.52,13.52,0,0,0-2.87.56,22.44,22.44,0,0,0-5.91,3.08c-.7.5-1.4,1-2.08,1.57l-1.21,1,.37-1.51a25.5,25.5,0,0,0,.43-7.68c0-.68-.27-5.28-.42-7.42a25.68,25.68,0,0,0-4.79,6.19,19,19,0,0,0-1.83,5.53c-.21,1.09-.37,2.23-.54,3.43-.09.59-.17,1.2-.27,1.82a17.35,17.35,0,0,1-.94,3.95,5.45,5.45,0,0,1-2.59,3Zm24.81-13.91h0Z" transform="translate(-40.18 -28)"/><path class="cls-3" d="M254.41,142.63c-1.84,0-4-.65-4.88-2.33a1.14,1.14,0,0,1-.15-.72,1.1,1.1,0,0,1,.39-.65,5,5,0,0,0,1.3-3,17,17,0,0,0,0-3.7c0-.61-.1-1.21-.16-1.79-.11-1.17-.21-2.27-.27-3.35a22.33,22.33,0,0,1,.41-6,35.72,35.72,0,0,1,3.22-8.55l.29-.6.46.19c.26.11.26.11,1.44,3.95.43,1.38,1.16,3.78,1.25,4.27a31,31,0,0,1,1.3,5.9q.3-.45.6-.87a26.33,26.33,0,0,1,4.55-5.05h0a14.23,14.23,0,0,1,2.53-1.62c.06,0,2.29-.87,2.83-.31a.57.57,0,0,1,.1.66,65.51,65.51,0,0,0-4.11,12.2c-1.49,5.41-4,8.56-8.63,10.9A5.59,5.59,0,0,1,254.41,142.63Zm-4-2.88,0,.05c1,1.91,4.6,2.12,5.92,1.42,4.35-2.19,6.7-5.16,8.1-10.24a68.82,68.82,0,0,1,3.85-11.67c-.47.11-1.05.27-1.23.34a12.92,12.92,0,0,0-2.3,1.48,25.19,25.19,0,0,0-4.36,4.85c-.49.68-1,1.41-1.45,2.15l-1,1.5v-1.77a25.58,25.58,0,0,0-1.35-7.27c-.12-.62-1.34-4.56-2-6.59a32.35,32.35,0,0,0-2.65,7.29,21.61,21.61,0,0,0-.39,5.76c.06,1.07.16,2.16.27,3.31.06.59.11,1.18.17,1.8a18.43,18.43,0,0,1,0,3.93,6.07,6.07,0,0,1-1.61,3.59A.46.46,0,0,0,250.43,139.75Zm18.21-21.14Z" transform="translate(-40.18 -28)"/><path class="cls-3" d="M259.45,118.1a3.37,3.37,0,0,1-2.57-1,1.06,1.06,0,0,1-.3-.63,1.2,1.2,0,0,1,.17-.7,5.72,5.72,0,0,0,.42-3.27,17.2,17.2,0,0,0-.89-3.49l-.59-1.71c-.36-1-.71-2-1-3a25.45,25.45,0,0,1-1.15-5.87,47.32,47.32,0,0,1,.28-8.65l.14-1.48.62.21c.44.14,4.35,7,4.38,7a32.08,32.08,0,0,1,2.49,4.93c.08-.27.15-.54.22-.81A32.14,32.14,0,0,1,264,93.3h0a14.53,14.53,0,0,1,1.59-2.41s1.57-1.6,2.27-1.29a.56.56,0,0,1,.34.59,99.25,99.25,0,0,0,0,13c.16,5.59-1.15,9.39-4.52,13.14a6.07,6.07,0,0,1-4.14,1.72Zm-1.82-1.75s0,0,0,0a2.37,2.37,0,0,0,1.84.67,5.05,5.05,0,0,0,3.37-1.37c3.17-3.53,4.4-7.13,4.26-12.41a101.16,101.16,0,0,1,0-12.31c-.31.24-.63.51-.73.61a13.88,13.88,0,0,0-1.44,2.2h0a30.77,30.77,0,0,0-2.27,6.14c-.23.82-.44,1.67-.64,2.54l-.47,2-.55-2A26.34,26.34,0,0,0,258,96c-.22-.48-2.12-3.63-3.24-5.44a43.47,43.47,0,0,0-.21,7.77,24.72,24.72,0,0,0,1.11,5.65c.3,1,.64,1.94,1,3l.59,1.72a18.31,18.31,0,0,1,.94,3.69,6.8,6.8,0,0,1-.52,3.87A.45.45,0,0,0,257.63,116.35Zm9.54-26.24Z" transform="translate(-40.18 -28)"/><path class="cls-3" d="M258.55,93a2.34,2.34,0,0,1-1.28-.38,1,1,0,0,1-.43-.52,1.34,1.34,0,0,1,0-.67,6.74,6.74,0,0,0-.58-3.36,19.3,19.3,0,0,0-1.72-3.1l-1.05-1.57c-.58-.86-1.12-1.67-1.64-2.51a32.65,32.65,0,0,1-2.75-5.39,72,72,0,0,1-2.46-7.6l-.56-2-.15-.49.51-.15c.32-.1.32-.09,3.11,2.62,1,1,2.69,2.62,3,3a33.55,33.55,0,0,1,3.39,3.75c0-.19,0-.39-.07-.59a51.39,51.39,0,0,1-.39-7h0a20.16,20.16,0,0,1,.33-2.88c.11-.38.63-2.08,1.34-2.09a.6.6,0,0,1,.57.44c1.33,4.23,2.44,7.17,4,11.25l.61,1.63c1.94,5.36,2.06,9.48.44,14.22a5.65,5.65,0,0,1-3.14,3.18A3,3,0,0,1,258.55,93Zm-11-25.52,0,.14A72.34,72.34,0,0,0,250,75.07a30.76,30.76,0,0,0,2.67,5.23c.51.82,1.05,1.63,1.62,2.48l1.05,1.59a20,20,0,0,1,1.82,3.26,7.88,7.88,0,0,1,.65,3.87.74.74,0,0,0,0,.2,1.5,1.5,0,0,0,1.38.09,4.55,4.55,0,0,0,2.49-2.52c1.55-4.5,1.43-8.42-.42-13.53l-.61-1.62c-1.42-3.76-2.48-6.56-3.69-10.29-.1.24-.18.47-.21.57a16.65,16.65,0,0,0-.3,2.67h0a49.58,49.58,0,0,0,.38,6.84c.1.89.22,1.8.34,2.73l.34,2.48L256.21,77a27.38,27.38,0,0,0-4.5-5.42C251.4,71.18,249.09,68.92,247.56,67.44Zm9.09-4.63Z" transform="translate(-40.18 -28)"/><path class="cls-3" d="M250.51,68.5a1.82,1.82,0,0,1-.56-.09,1.09,1.09,0,0,1-.54-.38,1.57,1.57,0,0,1-.25-.6,8.87,8.87,0,0,0-1.73-3.24,22,22,0,0,0-2.52-2.57l-1.48-1.31c-.77-.68-1.49-1.31-2.21-2a46.1,46.1,0,0,1-4.39-4.65c-1.56-1.87-2.89-3.65-4.3-5.54-.81-1.08-1.64-2.2-2.54-3.36l-.6-.76,1-.07h0c.42,0,7.12,4,7.18,4.06,1.38.82,2.63,1.58,3.87,2.49l-.14-.25c-1.41-2.53-2.66-4.8-3.65-6.92h0a31.93,31.93,0,0,1-1.22-3c-.59-2.26-.25-2.43,0-2.56a.58.58,0,0,1,.72.19c1.82,2.17,3.37,4,4.88,5.77s3.12,3.67,5,5.87c3.85,4.75,5.64,8.81,6.21,14A5.54,5.54,0,0,1,251.7,68,1.88,1.88,0,0,1,250.51,68.5ZM232.36,46.17l1,1.35c1.4,1.88,2.73,3.65,4.27,5.5a44,44,0,0,0,4.29,4.54c.71.67,1.43,1.3,2.19,2l1.49,1.32a21.87,21.87,0,0,1,2.64,2.7,10.15,10.15,0,0,1,1.92,3.6,1.16,1.16,0,0,0,.08.26.76.76,0,0,0,.78-.17,4.57,4.57,0,0,0,1.11-3.46c-.54-5-2.27-8.91-6-13.49-1.83-2.19-3.42-4.06-4.95-5.86-1.21-1.42-2.45-2.88-3.84-4.53l0,.16c.34.94.72,1.88,1.17,2.83,1,2.09,2.22,4.34,3.62,6.86.48.87,1,1.77,1.49,2.67l1.61,2.85-2.42-2.21a32.11,32.11,0,0,0-5.9-4.17C236.61,48.62,234.2,47.23,232.36,46.17Zm4-7.52Z" transform="translate(-40.18 -28)"/></g></svg>